<?xml version="1.0" encoding="utf-8"?>
<!-- Generator: Adobe Illustrator 21.0.0, SVG Export Plug-In . SVG Version: 6.00 Build 0)  -->
<?xml-stylesheet type="text/css" href="/css/style.css" ?>
<svg version="1.1" id="Layer_1" xmlns="http://www.w3.org/2000/svg" xmlns:xlink="http://www.w3.org/1999/xlink" x="0px" y="0px"
	 viewBox="0 0 693 693" style="enable-background:new 0 0 693 693;" xml:space="preserve">
<style type="text/css">
	.logo-circle{fill:#1C1C17;}
	.logo-orange{fill:#F0801A;}
	.logo-green{fill:#B5CC26;}
	.logo-purple{fill:#803D8A;}
	.logo-blue{fill:#80CCED;}
	.logo-pink{fill:#D42182;}
	.logo-yellow{fill:#FFED00;}
</style>
<path class="logo-circle" d="M346.5,0C537.9,0,693,155.1,693,346.5C693,537.9,537.9,693,346.5,693C155.1,693,0,537.9,0,346.5
	C0,155.1,155.1,0,346.5,0"/>
<path class="logo-orange" d="M264.6,505.4c-9.9,0-18.6,3.6-26,10.7c-7.4,7.1-11.1,15.8-11.1,26c0,10.2,3.6,19,10.9,26.2
	c7.3,7.3,16,10.9,26.2,10.9c10.2,0,19-3.6,26.2-10.9c7.3-7.3,10.9-16,10.9-26.2c0-18.3,2.2-29.6,6.5-33.9c4.3-4.3,15.8-6.5,34.4-6.5
	c10.2,0,18.9-3.6,26-10.7c7.1-7.1,10.7-15.9,10.7-26.5c0-10.2-3.6-18.9-10.7-26c-7.1-7.1-15.8-10.7-26-10.7c-9.9,0-18.6,3.6-26,10.7
	c-7.4,7.1-11.1,15.8-11.1,26c0,18.6-2.2,30-6.5,34.4C294.6,503.3,283.2,505.4,264.6,505.4"/>
<path class="logo-green" d="M396.3,266.5c9.9,0,18.6-3.6,26-10.7c7.4-7.1,11.1-15.8,11.1-26c0-10.2-3.6-19-10.9-26.2
	c-7.3-7.3-16-10.9-26.2-10.9c-10.2,0-18.9,3.6-26,10.7c-7.1,7.1-10.7,15.9-10.7,26.5c0,10.2,3.6,18.9,10.7,26
	C377.4,262.9,386.1,266.5,396.3,266.5"/>
<path class="logo-purple" d="M163.2,404.2c-10.2,0-19,3.6-26.2,10.9c-7.3,7.3-10.9,16-10.9,26.2c0,10.2,3.6,18.9,10.7,26
	c7.1,7.1,15.9,10.7,26.5,10.7c10.2,0,18.9-3.6,26-10.7c7.1-7.1,10.7-15.8,10.7-26c0-18.6,2.2-30,6.5-34.4c4.3-4.3,15.8-6.5,34.4-6.5
	c9.9,0,18.6-3.6,26-10.7c7.4-7.1,11.1-15.8,11.1-26c0-10.2-3.6-19-10.9-26.2c-7.3-7.3-16-10.9-26.2-10.9c-10.2,0-18.9,3.6-26,10.7
	c-7.1,7.1-10.7,15.9-10.7,26.5c0,18.3-2.2,29.6-6.5,33.9C193.2,402.1,181.8,404.2,163.2,404.2"/>
<path class="logo-blue" d="M252.6,488.2c10.2,0,19-3.6,26.2-10.9c7.3-7.3,10.9-16,10.9-26.2c0-10.2-3.6-18.9-10.7-26
	c-7.1-7.1-15.9-10.7-26.5-10.7c-10.2,0-18.9,3.6-26,10.7c-7.1,7.1-10.7,15.8-10.7,26c0,9.9,3.6,18.6,10.7,26
	C233.7,484.5,242.4,488.2,252.6,488.2"/>
<path class="logo-purple" d="M293.7,166.8c10.2,0,19-3.6,26.2-10.9c7.3-7.3,10.9-15.9,10.9-25.8c0-10.2-3.6-19-10.9-26.2
	c-7.3-7.3-16-10.9-26.2-10.9s-19,3.6-26.2,10.9c-7.3,7.3-10.9,16-10.9,26.2c0,10.2,3.6,18.9,10.7,26
	C274.3,163.3,283.1,166.8,293.7,166.8"/>
<path class="logo-pink" d="M228,303.5c10.2,0,19-3.6,26.2-10.9c7.3-7.3,10.9-15.9,10.9-25.8c0-10.2-3.6-19-10.9-26.2
	c-7.3-7.3-16-10.9-26.2-10.9c-10.2,0-19,3.6-26.2,10.9c-7.3,7.3-10.9,16-10.9,26.2c0,10.2,3.6,18.9,10.7,26
	C208.6,299.9,217.5,303.5,228,303.5"/>
<path class="logo-blue" d="M306.8,182.4c-9.9,0-18.6,3.6-26,10.7c-7.4,7.1-11.1,15.8-11.1,26c0,10.2,3.6,19,10.9,26.2
	c7.3,7.3,16,10.9,26.2,10.9c10.2,0,18.9-3.6,26-10.7c7.1-7.1,10.7-15.9,10.7-26.5c0-18.3,2.2-29.6,6.5-33.9
	c4.3-4.3,15.8-6.5,34.4-6.5c10.2,0,19-3.6,26.2-10.9c7.3-7.3,10.9-16,10.9-26.2c0-10.2-3.6-18.9-10.7-26
	c-7.1-7.1-15.9-10.7-26.5-10.7c-9.9,0-18.5,3.5-25.8,10.5c-7.3,7-10.9,15.7-10.9,26.2c0,18.6-2.2,30-6.5,34.4
	C336.8,180.2,325.4,182.4,306.8,182.4"/>
<path class="logo-orange" d="M480,178.7c10.2,0,19-3.6,26.2-10.9c7.3-7.3,10.9-15.9,10.9-25.8c0-10.2-3.6-19-10.9-26.2
	c-7.3-7.3-16-10.9-26.2-10.9c-10.2,0-19,3.6-26.2,10.9c-7.3,7.3-10.9,16-10.9,26.2c0,10.2,3.6,18.9,10.7,26
	C460.7,175.1,469.5,178.7,480,178.7"/>
<path class="logo-yellow" d="M458.5,600c9.9,0,18.6-3.6,26-10.7c7.4-7.1,11.1-15.8,11.1-26c0-10.2-3.6-19-10.9-26.2
	c-7.3-7.3-16-10.9-26.2-10.9c-10.2,0-18.9,3.6-26,10.7c-7.1,7.1-10.7,15.9-10.7,26.5c0,10.2,3.6,18.9,10.7,26
	C439.6,596.4,448.2,600,458.5,600"/>
<path class="logo-pink" d="M362,517.8c-9.9,0-18.6,3.6-26,10.7c-7.4,7.1-11.1,15.8-11.1,26c0,10.2,3.6,19,10.9,26.2
	c7.3,7.3,16,10.9,26.2,10.9c10.2,0,19-3.6,26.2-10.9c7.3-7.3,10.9-16,10.9-26.2c0-18.3,2.2-29.6,6.5-33.9c4.3-4.3,15.8-6.5,34.4-6.5
	c10.2,0,18.9-3.6,26-10.7c7.1-7.1,10.7-15.9,10.7-26.5c0-10.2-3.6-18.9-10.7-26c-7.1-7.1-15.8-10.7-26-10.7c-9.9,0-18.6,3.6-26,10.7
	c-7.4,7.1-11.1,15.8-11.1,26c0,18.6-2.2,30-6.5,34.4C392.1,515.6,380.6,517.8,362,517.8"/>
<path class="logo-yellow" d="M136.8,221.8c-10.2,0-19,3.6-26.2,10.9c-7.3,7.3-10.9,16-10.9,26.2c0,10.2,3.6,18.9,10.7,26
	c7.1,7.1,15.9,10.7,26.5,10.7c10.2,0,18.9-3.6,26-10.7c7.1-7.1,10.7-15.8,10.7-26c0-18.6,2.2-30,6.5-34.4c4.3-4.3,15.8-6.5,34.4-6.5
	c9.9,0,18.6-3.6,26-10.7c7.4-7.1,11.1-15.8,11.1-26c0-10.2-3.6-19-10.9-26.2c-7.3-7.3-16-10.9-26.2-10.9c-10.2,0-18.9,3.6-26,10.7
	c-7.1,7.1-10.7,15.9-10.7,26.5c0,18.3-2.2,29.6-6.5,33.9C166.8,219.6,155.3,221.8,136.8,221.8"/>
<path class="logo-green" d="M150,385.5c9.9,0,18.6-3.6,26-10.7c7.4-7.1,11.1-15.8,11.1-26c0-10.2-3.6-19-10.9-26.2
	c-7.3-7.3-16-10.9-26.2-10.9c-10.2,0-18.9,3.6-26,10.7c-7.1,7.1-10.7,15.9-10.7,26.5c0,10.2,3.6,18.9,10.7,26
	C131.1,381.9,139.8,385.5,150,385.5"/>
</svg>
