<?xml version="1.0" encoding="utf-8"?>
<?xml-stylesheet type="text/css" href="/css/style.css" ?>
<!-- Generator: Adobe Illustrator 21.0.0, SVG Export Plug-In . SVG Version: 6.00 Build 0)  -->
<svg version="1.1" xmlns="http://www.w3.org/2000/svg" xmlns:xlink="http://www.w3.org/1999/xlink" x="0px" y="0px"
	 viewBox="0 0 360 675" style="enable-background:new 0 0 360 675;" xml:space="preserve">
<g id="svg3368" xmlns:cc="http://creativecommons.org/ns#" xmlns:dc="http://purl.org/dc/elements/1.1/" xmlns:rdf="http://www.w3.org/1999/02/22-rdf-syntax-ns#" xmlns:svg="http://www.w3.org/2000/svg">
	<path id="path3378" d="M172.7,594.1l-0.1-80.9l-86.2,80.8c-47.4,44.4-86.2,80.8-86.3,80.8C0.1,674.7,0,523,0,337.5
		S0.1,0.3,0.2,0.3s38.9,36.4,86.3,80.8l86.2,80.8l0.1-80.9L172.8,0h6.3h6.3l0.2,87.3l0,76.2l87.1-81.6C320.5,37,359.8,0.3,359.8,0.3
		c0.1,0,0.2,151.7,0.2,337.2s-0.1,337.2-0.2,337.2c-0.1,0-39.3-36.7-87.2-81.6l-87.1-81.6l-0.1,81.8l-0.1,81.8h-6.3h-6.3
		L172.7,594.1L172.7,594.1z M92.2,571.4c43.1-40.4,78.4-73.5,78.4-73.7c0.1-0.3-77.1-72.7-77.7-72.9c-0.2-0.1-18.3,17.9-40.3,39.9
		l-40,40v70.6V646l0.6-0.6C13.6,645.1,49.1,611.8,92.2,571.4z M307.4,464.8c-22-22-40.1-39.9-40.4-39.9
		c-0.5,0.1-77.8,72.6-77.7,72.9c0,0.1,35.6,33.5,79,74.2l78.9,74l0.1-70.6l0.1-70.6L307.4,464.8L307.4,464.8z M83.6,416
		c-0.1-0.2-70.3-66.1-70.8-66.4c-0.2-0.1-0.3,28.7-0.3,68.8v68.9l35.6-35.5C67.7,432.2,83.7,416.2,83.6,416L83.6,416z M347.3,384
		l-0.1-34.6l-34.6,32.5c-19.1,17.9-35.1,32.9-35.5,33.3l-0.9,0.9l35.5,35.5l35.5,35.5l0.1-34.3C347.4,434,347.4,403,347.3,384
		L347.3,384z M221.1,450.6c18.6-17.4,34.5-32.3,35.5-33.3l1.7-1.7l-36.4-36.4l-36.4-36.4v70.6V484l1-0.9
		C186.9,482.6,202.5,468,221.1,450.6L221.1,450.6z M172.8,413.3v-68.8l-35.5,35.5l-35.5,35.5l0.7,0.7c2.4,2.4,70,65.7,70.2,65.7
		C172.7,482.1,172.8,451.2,172.8,413.3L172.8,413.3z M127.6,372.3l34.8-34.8l-34.8-34.8c-19.1-19.1-34.9-34.8-35-34.8
		c-0.2,0-74.2,69.4-74.2,69.6c0,0.2,74,69.6,74.2,69.6C92.8,407.1,108.5,391.4,127.6,372.3L127.6,372.3z M304.5,372.4
		c20.4-19.1,37-34.8,37-34.9c0-0.2-74-69.6-74.2-69.6c-0.1,0-15.8,15.7-35,34.8l-34.8,34.8l34.8,34.8c19.1,19.1,34.9,34.8,35,34.8
		S284.2,391.5,304.5,372.4L304.5,372.4z M256.6,257.7c-0.9-0.9-16.9-15.9-35.5-33.3s-34.2-32-34.7-32.5l-1-0.9v70.6v70.6l36.4-36.4
		l36.4-36.4L256.6,257.7L256.6,257.7z M172.7,193c-0.1-0.1-16.1,14.8-35.6,33.1l-35.4,33.2l35.5,35.5l35.5,35.5l0.1-68.6
		C172.8,224,172.7,193,172.7,193L172.7,193z M48.3,292.2C67.7,274,83.6,259.1,83.6,259c0-0.1-15.9-16.2-35.5-35.8l-35.6-35.5v68.9
		c0,40,0.1,68.9,0.3,68.8C13,325.3,29,310.4,48.3,292.2L48.3,292.2z M347.4,256.6v-68.9l-35.6,35.5c-19.6,19.6-35.5,35.6-35.5,35.8
		c0.1,0.2,70.7,66.5,70.9,66.5C347.4,325.5,347.4,294.5,347.4,256.6z M132,213.8c21.3-20,38.7-36.4,38.6-36.5
		c0-0.1-35.6-33.5-79-74.2l-78.9-74l-0.1,70.6l-0.1,70.6l40,40c22,22,40.1,39.9,40.4,39.9C93.1,250.1,110.7,233.7,132,213.8
		L132,213.8z M307.4,210.2l40-40l-0.1-70.6l-0.1-70.6l-78.9,74c-43.4,40.7-78.9,74.1-78.9,74.3c0,0.4,77.3,72.9,77.7,72.9
		C267.3,250.2,285.4,232.2,307.4,210.2L307.4,210.2z"/>
</g>
<g id="svg_color" xmlns:cc="http://creativecommons.org/ns#" xmlns:dc="http://purl.org/dc/elements/1.1/" xmlns:rdf="http://www.w3.org/1999/02/22-rdf-syntax-ns#" xmlns:svg="http://www.w3.org/2000/svg">
	<path id="color_path" class="st0" d="M172.6,513.1l0.1-432.2L172.8,0h6.3h6.3l0.1,81.8l0.1,429.6 M185.6,511.4l-0.1,81.8l-0.1,81.8
		h-6.3h-6.3l-0.1-80.9h0l-0.1-80.9"/>
</g>
</svg>
